<svg id="_0020_checklist" xmlns="http://www.w3.org/2000/svg" viewBox="0 0 500 500" data-imageid="checklist-59" imageName="Checklist" class="illustrations_image" style="width: 178px;"><defs><style>.cls-1_checklist-59{opacity:.28;}.cls-1_checklist-59,.cls-2_checklist-59{fill:#a5a5a5;}.cls-3_checklist-59,.cls-4_checklist-59{fill:#fff;}.cls-5_checklist-59{fill:#f4a28c;}.cls-6_checklist-59{fill:#e6e6e6;}.cls-4_checklist-59{opacity:.2;}.cls-7_checklist-59{opacity:.02;}.cls-7_checklist-59,.cls-8_checklist-59{fill:#000001;}.cls-9_checklist-59{fill:#24285b;}.cls-8_checklist-59{opacity:.08;}.cls-10_checklist-59{fill:#ffd200;}.cls-11_checklist-59{fill:#68e1fd;}</style></defs><g id="checklist_board_checklist-59"><ellipse class="cls-7_checklist-59" cx="252.06" cy="426.45" rx="236.9" ry="40.33"/><rect class="cls-2_checklist-59" x="390.5" y="398.37" width="81.19" height="21.37"/><rect class="cls-1_checklist-59" x="372.75" y="377.46" width="81.19" height="21.37"/><rect class="cls-6_checklist-59" x="153.26" y="61.13" width="268.96" height="358.77"/><rect class="cls-8_checklist-59" x="196.44" y="104.15" width="209.39" height="295.41"/><rect class="cls-3_checklist-59" x="183.05" y="88.51" width="209.39" height="296.54"/><path class="cls-8_checklist-59" d="m161.43,174.39s61.59,20.02,71.63,72.75l53.09-59.57s18.93-2.3,10.56,15.14c-5.49,11.43-6.84,44.31-21.25,66.55-28.57,44.09-89.44,93.55-97.9,145.4l-.71,4.36-19.67.89,5.44-160.83-1.18-84.68Z"/><rect class="cls-2_checklist-59" x="219.28" y="33.78" width="17.68" height="46.35"/><rect class="cls-2_checklist-59" x="338.85" y="33.78" width="17.68" height="46.35"/><rect class="cls-10_checklist-59" x="322.9" y="171.6" width="44.64" height="44.64"/><rect class="cls-10_checklist-59" x="322.9" y="236.75" width="44.64" height="44.64"/><rect class="cls-10_checklist-59" x="322.9" y="301.91" width="44.64" height="44.64"/><rect class="cls-8_checklist-59" x="220.78" y="184.43" width="80.35" height="18.97"/><rect class="cls-8_checklist-59" x="220.78" y="249.59" width="80.35" height="18.97"/><rect class="cls-8_checklist-59" x="220.78" y="314.75" width="80.35" height="18.97"/><polygon class="cls-3_checklist-59" points="341.95 209.54 330.96 195.46 334.92 192.37 341.79 201.17 354.89 182.96 358.97 185.9 341.95 209.54"/><rect class="cls-10_checklist-59" x="322.9" y="107.58" width="44.64" height="44.64"/><rect class="cls-8_checklist-59" x="220.78" y="120.41" width="80.35" height="18.97"/><polygon class="cls-3_checklist-59" points="341.95 145.52 330.96 131.44 334.92 128.35 341.79 137.15 354.89 118.94 358.97 121.88 341.95 145.52"/><polygon class="cls-3_checklist-59" points="341.95 273.72 330.96 259.64 334.92 256.55 341.79 265.35 354.89 247.15 358.97 250.08 341.95 273.72"/><polygon class="cls-3_checklist-59" points="341.95 337.9 330.96 323.82 334.92 320.73 341.79 329.53 354.89 311.33 358.97 314.26 341.95 337.9"/></g><g id="person_checklist-59"><path class="cls-5_checklist-59" d="m33.1,276.16s-9.58-4.08-13.21,4.83c-3.63,8.92,13.21,13.21,13.21,13.21v-18.04Z"/><rect class="cls-10_checklist-59" x="28.61" y="152.04" width="43.53" height="275.69" transform="translate(-2.32 .41) rotate(-.46)"/><polygon class="cls-5_checklist-59" points="27.51 152.22 48.76 88.38 71.04 151.87 27.51 152.22"/><polygon class="cls-9_checklist-59" points="39.1 117.4 58.89 117.24 48.76 88.38 39.1 117.4"/><rect class="cls-8_checklist-59" x="28.72" y="152.12" width="22.51" height="275.69" transform="translate(-2.32 .33) rotate(-.46)"/><path class="cls-8_checklist-59" d="m28.74,292.7v27.59s23.65,2.64,43.57-10.24v-24.79l-17.08-3.29-26.49,10.72Z"/><path class="cls-11_checklist-59 targetColor" d="m114.95,194.4c-11.9,25.78-47.48,75.93-81.85,81.75v18.04s61.62-3.19,115.76-57.35c22.56-22.57,22.17-38.15,14.04-48.66-12.86-16.62-39.14-12.87-47.95,6.21Z" style="fill: rgb(104, 225, 253);"/><path class="cls-8_checklist-59" d="m114.95,194.4c-11.9,25.78-47.48,75.93-81.85,81.75v18.04s61.62-3.19,115.76-57.35c22.56-22.57,22.17-38.15,14.04-48.66-12.86-16.62-39.14-12.87-47.95,6.21Z"/><polygon class="cls-5_checklist-59" points="143.46 152.35 149.86 171.57 134.65 181.23 129.18 147.92 143.46 152.35"/><path class="cls-5_checklist-59" d="m133.88,128.2c6.03-6.17,16.49-3.7,19.6,4.36,3.41,8.83,6.51,21.96-3.92,24.19-15.96,3.42-21.04-17.1-21.04-17.1,0,0,.78-6.76,5.35-11.44Z"/><path class="cls-5_checklist-59" d="m133.84,141.13s-3.46-2.9-5.03,1.22c-1.57,4.11,4.55,6.1,6.38,4.02s-1.34-5.24-1.34-5.24Z"/><path class="cls-11_checklist-59 targetColor" d="m116.9,190.67c4.59-10.32,13.57-18.04,24.39-21.29,20.67-6.21,58.72.58,70.33,19.92,15.88,26.47-7.37,110.55-7.37,110.55l-69.46,5.39s-38.21-68.91-17.89-114.57Z" style="fill: rgb(104, 225, 253);"/><polygon class="cls-9_checklist-59" points="204.24 299.84 195.1 419.26 180.66 419.26 167.77 326.48 135.83 305.24 204.24 299.84"/><polygon class="cls-9_checklist-59" points="135.83 305.24 115.9 419.26 131.39 419.26 164.83 324.53 135.83 305.24"/><path class="cls-8_checklist-59" d="m147.29,167.56s-32.49,104.64,61.33,111.58l-4.38,20.7-69.46,5.39s-27.12-47.28-23.44-92.41c0,0,.59-26.69,19.38-38.49,0,0,7.17-5.28,16.56-6.78Z"/><path class="cls-11_checklist-59 targetColor" d="m119.53,419.01l-9.33,6.87c-1.59,1.17-.76,3.7,1.22,3.7h15.63c1.13,0,2.05-.92,2.05-2.05v-8.52h-9.57Z" style="fill: rgb(104, 225, 253);"/><path class="cls-11_checklist-59 targetColor" d="m193.3,419.01l8.78,6.87c1.55,1.21.69,3.71-1.28,3.71h-11.13c-3.28,0-5.94-2.66-5.94-5.94v-4.63h9.57Z" style="fill: rgb(104, 225, 253);"/><path class="cls-11_checklist-59 targetColor" d="m175.61,168.82s-11.93,16.92,0,37.05c7.58,12.79,29.61,37.68,44.68,54.13,7.34,8.01,20.35,6.49,25.64-2.99l32.37-57.06-10.98-7.04-29.66,43.49s-20.3-66.74-62.04-67.57Z" style="fill: rgb(104, 225, 253);"/><path class="cls-4_checklist-59" d="m175.61,168.82s-11.93,16.92,0,37.05c7.58,12.79,29.61,37.68,44.68,54.13,7.34,8.01,20.35,6.49,25.64-2.99l32.37-57.06-10.98-7.04-29.66,43.49s-20.3-66.74-62.04-67.57Z"/><path class="cls-5_checklist-59" d="m274.47,197.5s18.38-6.75,10.88-17.14c-7.5-10.39-18.04,12.56-18.04,12.56l7.16,4.59Z"/><path class="cls-9_checklist-59" d="m130.38,153.42l-5.54-13.74c-1.16-2.88-1.07-6.1.23-8.92,2.27-4.93,6.59-12.51,13.18-16.83,10.34-6.79,20.47-6.84,19.33,2.19s3.22-.47,6.72,5.99c3.5,6.46,1.39,8.56-3.71,9.17-5.11.61-15.1.42-18.66,6.99-3.56,6.57.72,14.75-11.55,15.16Z"/><rect class="cls-9_checklist-59" x="29.18" y="380.11" width="44.04" height="49.48" transform="translate(-3.25 .42) rotate(-.46)"/></g></svg>