<svg version="1.1" id="Layer_1" xmlns="http://www.w3.org/2000/svg" xmlns:xlink="http://www.w3.org/1999/xlink" x="0px" y="0px" viewBox="0 0 500 500" style="width: 150px;" xml:space="preserve" data-imageid="designer-42" imageName="Designer" class="illustrations_image">
<style type="text/css">
	.st0_designer-42{fill:#FFB3A6;}
	.st1_designer-42{fill:#002A40;}
	.st2_designer-42{opacity:0.32;fill:url(#SVGID_1_);enable-background:new    ;}
	.st3_designer-42{fill:#8CCC00;}
	.st4_designer-42{fill:#FFE9C7;}
	.st5_designer-42{fill:#FF7351;}
	.st6_designer-42{fill:#68E1FD;}
	.st7_designer-42{opacity:0.15;fill:#002A40;enable-background:new    ;}
	.st8_designer-42{opacity:0.32;fill:url(#SVGID_00000048475509424801976790000000841938786970695818_);enable-background:new    ;}
	.st9_designer-42{fill:#728489;}
	.st10_designer-42{fill:#FFFFFF;}
	.st11_designer-42{fill:#FFE0CE;}
	.st12_designer-42{opacity:0.5;fill:#FF7351;enable-background:new    ;}
	.st13_designer-42{opacity:0.5;fill:#002A40;enable-background:new    ;}
	.st14_designer-42{opacity:0.32;fill:url(#SVGID_00000053544946688442814530000012924933634973252523_);enable-background:new    ;}
	.st15_designer-42{opacity:0.32;fill:url(#SVGID_00000121983523485384536880000010121548798739436191_);enable-background:new    ;}
	.st16_designer-42{fill:#E2E2E2;}
	.st17_designer-42{opacity:0.38;}
	.st18_designer-42{opacity:0.32;fill:url(#SVGID_00000137110423206749696920000002213334067984550573_);enable-background:new    ;}
</style>
<path id="field_designer-42" class="st0_designer-42" d="M256.9,423.1l216-127.7c6.9-3.9,12.8-10.2,6.1-14.4L262.2,156.1c-3.2-2-8.2-3.3-11.5-1.4L23.9,286.3&#10;&#9;c-6.9,4-8.1,15.1-1.2,19.1l205.7,117.4C237.2,428,248,428,256.9,423.1z"/>
<g id="person_desk_designer-42">
	<path class="st1_designer-42" d="M302.9,126.7c-2.6-0.8-4.5-3-4.9-5.7c-0.6-4.6,3.3-10.5,13.1-10s27.8,7.7,19.1,52c0,0-21.4-9.6-29.5-17.8&#10;&#9;&#9;C300.7,145.2,300.4,130.7,302.9,126.7z"/>
	
		<linearGradient id="SVGID_1_-designer-42" gradientUnits="userSpaceOnUse" x1="260.8813" y1="232.0885" x2="201.8113" y2="180.5985" gradientTransform="matrix(1 0 0 -1 0 502)">
		<stop offset="0" style="stop-color:#FF7351"/>
		<stop offset="1" style="stop-color:#FFB3A6"/>
	</linearGradient>
	<polyline class="st2_designer-42" points="364.7,275.8 250.6,345.4 139.7,279.2 248.1,212.4 &#9;"/>
	<polyline class="st1_designer-42" points="320.2,239.8 320.2,291.4 324,291.4 324.8,238.4 &#9;"/>
	<polyline class="st1_designer-42" points="341.9,219.9 349.5,276 345.7,276 337.7,222 &#9;"/>
	<path class="st1_designer-42" d="M270,251.5c0,0-3.3,10.7-4,11.8s-11.4,8.2-11.2,10.4s4.2,3.1,6.7,2.9s17-6.2,17.9-8s0.9-17,0.9-17L270,251.5z"/>
	<path class="st1_designer-42" d="M287.3,264c0,0-3.3,10.7-4,11.8s-11.4,8.2-11.3,10.3s4.2,3.1,6.7,2.9s17-6.2,17.9-8s0.9-17,0.9-17L287.3,264z"/>
	<path class="st1_designer-42" d="M344,166.6c-1,2.8-6.7,45.9-6.7,45.9l-5.8-1.9l7.5-44.2"/>
	<polyline class="st3_designer-42" points="341.9,219.9 342,213 335.9,215.1 337.7,222 &#9;"/>
	<path class="st1_designer-42" d="M328,209.2c0,0,15.4,5.9,13.9,11.7S328,241,320.2,239.8s-17.5-8.1-17.5-8.1"/>
	<path class="st3_designer-42" d="M328,202.1c0,0,15.4,5.9,13.9,11.8s-13.9,20.1-21.7,18.9s-17.5-8.1-17.5-8.1"/>
	<path class="st3_designer-42" d="M334.1,148c0,0,14.9,3.7,16.4,12.3s1.9,24.4-19.2,18.2s-11.2-22-11.2-22"/>
	<path class="st1_designer-42" d="M315.5,166.3c0,0,4.8,20.3,1.2,31.1S292.8,217,292.8,217l-8.6,43.6c-11.4,3.6-21.1-2.5-21.1-2.5&#10;&#9;&#9;s2.4-38.5,6-48.3s31.6-28.9,31.6-28.9"/>
	<path class="st1_designer-42" d="M316.3,192.1c0,0-28,19.2-31.6,28.9s-6,48.3-6,48.3s9.8,6.1,21.1,2.5l8.6-43.6c0,0,14.5-4.2,18.1-15&#10;&#9;&#9;s2.1-27.3,2.1-27.3"/>
	<path class="st4_designer-42" d="M331.5,145.4c-6.7-8.2-20.8-7.2-20.8-7.2s-8.2-4.9-15,0.9c-2.1,1.7-2.7,6.7-2.7,13.1c0.4,2.5,1.2,4.9,2.3,7.1&#10;&#9;&#9;c1.9,3.6,3.8,7.1,4.4,11.2c0.7,5-0.1,9.5-3.5,13.1c8.8,7.9,18.6,13.6,31,11.4C332.5,182.2,334.7,149.3,331.5,145.4z"/>
	<path class="st1_designer-42" d="M307.4,196c-5,5-10.4,9.9-15.1,15.2c-4.1,4.6-5.7,10.6-7.2,16.4c-3.7,13.6-5.3,27.7-7,41.7&#10;&#9;&#9;c-0.1,0.9,1.2,0.8,1.3,0c1.6-13.4,3.1-27,6.6-40.1c1.7-6.4,3.4-12.9,8-17.9s9.6-9.6,14.4-14.4c0.3-0.3,0.3-0.7,0-1&#10;&#9;&#9;C308,195.7,307.6,195.7,307.4,196L307.4,196z"/>
	<path class="st5_designer-42" d="M302,189.2c1.2-8.2,3.1-16.4,3.1-24.7c0-9.4-2.5-18.9-0.3-28.2c-3.3-0.4-6.6,0.6-9.1,2.7&#10;&#9;&#9;c-2.1,1.7-2.7,6.7-2.7,13.1c0.4,2.5,1.2,4.9,2.3,7.1c1.9,3.6,3.8,7.1,4.4,11.2c0.7,5-0.1,9.5-3.5,13.1&#10;&#9;&#9;C298.1,185.2,300,187.8,302,189.2z"/>
	<path class="st5_designer-42" d="M331.5,145.4c-2.6-3-6.1-5.1-10-6c-1.3,10.6-2,21.2-3,31.7c-0.8,8-1.1,16-1.8,24c3.5,0.5,7.1,0.4,10.6-0.2&#10;&#9;&#9;C332.5,182.2,334.7,149.3,331.5,145.4z"/>
	<path class="st6_designer-42 targetColor" d="M365.6,234.9l2.8-1.6l-130.1-74.5l-84.6,48l1.1,0.7v63.4c0,0.3,0.3,0.6,0.6,0.6c0.3,0,0.6-0.3,0.6-0.6v-62.6&#10;&#9;&#9;l125.2,73.1l0.3-0.2v45.6c0,0.3,0.3,0.6,0.6,0.6s0.6-0.3,0.6-0.6v-46.3l81.9-45.1c0,0,0,0,0,0.1v40.3c0,0.3,0.3,0.6,0.6,0.6&#10;&#9;&#9;s0.6-0.3,0.6-0.6v-40.3C366,235.2,365.8,235,365.6,234.9z" style="fill: rgb(104, 225, 253);"/>
	<path class="st7_designer-42" d="M365.6,234.9l2.8-1.6l-130.1-74.5l-84.6,48l1.1,0.7v63.4c0,0.3,0.3,0.6,0.6,0.6c0.3,0,0.6-0.3,0.6-0.6v-62.6&#10;&#9;&#9;l125.2,73.1l0.3-0.2v45.6c0,0.3,0.3,0.6,0.6,0.6s0.6-0.3,0.6-0.6v-46.3l81.9-45.1c0,0,0,0,0,0.1v40.3c0,0.3,0.3,0.6,0.6,0.6&#10;&#9;&#9;s0.6-0.3,0.6-0.6v-40.3C366,235.2,365.8,235,365.6,234.9z"/>
	
		<linearGradient id="SVGID_00000131346763382609287730000002763570979894711740_-designer-42" gradientUnits="userSpaceOnUse" x1="228.2023" y1="267.3764" x2="258.9823" y2="304.1664" gradientTransform="matrix(1 0 0 -1 0 502)">
		<stop offset="0" style="stop-color:#002A40;stop-opacity:0"/>
		<stop offset="0.99" style="stop-color:#002A40"/>
	</linearGradient>
	<path style="opacity:0.32;fill:url(#SVGID_00000131346763382609287730000002763570979894711740_);enable-background:new    ;" d="&#10;&#9;&#9;M235,204.5l-40.9,22.8c6.8,4.3,34.3,19.1,40.9,23.8l42.2-27l-7-16.9L235,204.5z"/>
	<polyline class="st9_designer-42" points="275.4,225.1 305.1,207.8 266.4,185.4 235.9,201.1 &#9;"/>
	<path class="st10_designer-42" d="M267.7,190.9c0,0,7.8,34.6,7.7,34.2s-38.6-21.1-38.8-21.8s-10.2-35.9-10.2-35.9L267.7,190.9z"/>
	<polygon class="st11_designer-42" points="258.8,185.8 276.1,172.4 283.4,178.6 267.1,190.6 &#9;"/>
	<path class="st5_designer-42" d="M294.9,140.1c0,0-19.2,30.1-23.5,33.8c-0.7,0.6-1.5,1.1-2.3,1.6c3.4,3.1,6.3,6.6,8.7,10.5&#10;&#9;&#9;c2-1.5,3.8-3.2,5.5-5.1c3.7-4.4,14.7-19.3,14.7-19.3L294.9,140.1z"/>
	<path class="st11_designer-42" d="M309.1,133.8c0,2.7,0.1,5.4-0.1,8.1c0.5,1.2,1.2,2.1,2.2,2c3.2-0.4,7.1-5.2,7.1-5.2l0.9-10.4L309.1,133.8z"/>
	<path class="st12_designer-42" d="M309.1,133.8c0,2.7,0.1,5.4-0.1,8.1c0.5,1.2,1.2,2.1,2.2,2c3.2-0.4,7.1-5.2,7.1-5.2l0.9-10.4L309.1,133.8z"/>
	<path class="st11_designer-42" d="M302.3,122.2c0.4,1.7,1.1,17.3,8.4,15.9s8.4-9.9,8.4-9.9s-5.1-1.4-5.1-3.9&#10;&#9;&#9;C314.1,117.4,301.1,117.2,302.3,122.2z"/>
	<polygon class="st13_designer-42" points="297.3,163.1 296.3,147.2 291.5,170.1 &#9;"/>
	<path class="st11_designer-42" d="M297.8,199.2c-2.8,1.3-5.6,2.9-8.2,4.6c-1.8,1.2-3.7,2.5-4.7,4.5c-0.3,0.7-1.7,3.3-1,4s2.3,0,2.3,0&#10;&#9;&#9;s-0.1,1.5,0.4,1.8s2-0.9,2-0.9s0.7,1.8,1.7,1.4s2.7-3,2.7-3s-0.2,2,0.7,2s4.5-5,4.5-5l16.1-10c0,0-1.1-4.9-1.3-5.1&#10;&#9;&#9;c-1.1-1,0.4-1.1-1-1.6c-0.5-0.2-1.8,0.7-2.2,0.9c-1.5,0.8-3,1.6-4.5,2.4c-2.4,1.3-4.8,2.6-7.3,3.9L297.8,199.2z"/>
	<path class="st1_designer-42" d="M296.5,205.7c-1.7,1.9-3,4.1-3.8,6.5c-0.1,0.3,0.4,0.4,0.5,0.1c0.7-2.4,2-4.5,3.7-6.4&#10;&#9;&#9;C297,205.8,296.7,205.5,296.5,205.7z"/>
	<path class="st1_designer-42" d="M294.2,204.2c-2.8,2.5-4.7,5.8-5.6,9.4c-0.1,0.3,0.4,0.4,0.5,0.1c0.9-3.5,2.8-6.8,5.5-9.2&#10;&#9;&#9;C294.8,204.3,294.4,204,294.2,204.2z"/>
	<path class="st1_designer-42" d="M291.9,203.7c-2.7,2.3-4.8,5.4-5.9,8.8c-0.1,0.3,0.4,0.4,0.5,0.1c1.1-3.3,3.1-6.3,5.8-8.6&#10;&#9;&#9;C292.5,203.8,292.2,203.5,291.9,203.7z"/>
	<path class="st5_designer-42" d="M312.2,186.8c-0.2,0.9-4.5,3.7-8.9,6.4c4.7,2,8.6,5.5,11,10.1c5-2.6,10.2-5.5,12.1-7.6&#10;&#9;&#9;c4.1-4.5,5.5-23.3,5.5-23.3L312.2,186.8z"/>
	<path class="st1_designer-42" d="M301.5,123.6c0,0,5,2.6,15.6,0.7c0,0-2-8.1-10.4-8.8S301.5,123.6,301.5,123.6z"/>
</g>
<g id="model_designer-42">
	
		<linearGradient id="SVGID_00000130618781116120272280000004899909897649106577_-designer-42" gradientUnits="userSpaceOnUse" x1="410.85" y1="207.9501" x2="387.53" y2="192.4101" gradientTransform="matrix(1 0 0 -1 0 502)">
		<stop offset="0" style="stop-color:#FF7351"/>
		<stop offset="1" style="stop-color:#FFB3A6"/>
	</linearGradient>
	
		<polyline style="opacity:0.32;fill:url(#SVGID_00000130618781116120272280000004899909897649106577_);enable-background:new    ;" points="&#10;&#9;&#9;433.5,297.4 388.8,324.1 365.6,305.8 405.6,281.2 &#9;"/>
	<polyline class="st1_designer-42" points="397.4,284.1 397.4,289.6 438.3,289.6 438.3,284.1 &#9;"/>
	<ellipse class="st1_designer-42" cx="417.9" cy="289.6" rx="20.5" ry="12"/>
	<ellipse class="st1_designer-42" cx="417.9" cy="284.1" rx="20.5" ry="12"/>
	<path class="st1_designer-42" d="M422.1,286.1V170.4h-8.5v115.2C416.3,287.1,419.4,287.2,422.1,286.1z"/>
	<path class="st1_designer-42" d="M394.2,204.7c0,0,20.7,16.4,34.2,17.3s16-4.2,15.6-11.1s-3.7-13-7.7-18.1s-6.5-12.3,2.3-25.8&#10;&#9;&#9;s14.9-18.6,9.3-28.1s-28.8-21.1-36.5-17.2s-2.3,7.4-6.7,13s-9.5,10.2-2.5,17.9S393.3,176.6,394.2,204.7z"/>
	<path class="st1_designer-42" d="M436.6,128.8c-1.4-5.8-1.4-11.8,0-17.6c2.4-9.3-10.8-4.5-16.6,0s0.9,8.9-1.6,17.6"/>
	<path class="st5_designer-42" d="M418.6,120.7c-6.2,5-10.4,14.4-13.2,20.6c-7.1,15.8-9.1,33.2-13.6,49.8c0.9,0.5,1.7,1,2.6,1.5&#10;&#9;&#9;c3.6-13.1,5.5-26.6,9.6-39.5c2.2-7,5.2-13.8,9-20.1c1.9-3.1,3.8-6.5,6.4-9.1C419.1,122.7,418.9,121.7,418.6,120.7z"/>
	<path class="st5_designer-42" d="M435.4,119.7c0,1.7,0,3.4-0.1,5.1c0.5,1.1,0.8,2.4,0.8,3.6c0,7.2-7,14.6-10.6,20.6c-3.2,5.3-6,10.9-8.5,16.6&#10;&#9;&#9;c-4.7,11.3-6.8,23.3-4.9,35.4l3.1,0.7c-3.8-20.6,5.4-39.7,16.2-56.7C435.8,138,443.5,125.4,435.4,119.7z"/>
</g>
<g id="shoes_designer-42">
	<path class="st6_designer-42 targetColor" d="M116.4,104.3l1.1,60.7c0,2.1,1.8,3.8,3.9,3.7c0.6,0,1.1-0.1,1.6-0.4l51.6-25.7c1.7-0.9,2.8-2.7,2.8-4.6&#10;&#9;&#9;l-1.1-60.7c0-2.3-1.9-4.1-4.2-4.1c-0.6,0-1.2,0.2-1.8,0.4l-51.1,26C117.4,100.6,116.3,102.4,116.4,104.3z" style="fill: rgb(104, 225, 253);"/>
	<path class="st1_designer-42" d="M150.7,105.7c-1.9,10.9-5.8,33.6-17.1,26.6c-1.6,2.4-3.3,5-4.3,6.2c-2.2,2.6-1.3,9.5,6.6,8.1&#10;&#9;&#9;c5.2-0.9,10.1-3.2,14.1-6.6c1.1-0.9,6.8-21.6,7.9-22.2s-1.1,19.1,0,18.5s5.7-2.9,5.7-2.9v-20.5c0,0-0.3-8.5-0.8-11.1&#10;&#9;&#9;C159.3,104.3,155.1,105.7,150.7,105.7z"/>
</g>
<g id="color_swatches_designer-42">
	
		<linearGradient id="SVGID_00000029745641099950500550000012678386672179846042_-designer-42" gradientUnits="userSpaceOnUse" x1="173.916" y1="132.7923" x2="168.356" y2="122.8423" gradientTransform="matrix(1 0 0 -1 0 502)">
		<stop offset="0" style="stop-color:#FF7351"/>
		<stop offset="1" style="stop-color:#FFB3A6"/>
	</linearGradient>
	
		<polyline style="opacity:0.32;fill:url(#SVGID_00000029745641099950500550000012678386672179846042_);enable-background:new    ;" points="&#10;&#9;&#9;252.2,400.8 227.5,418.4 94.8,339.1 120.1,323.6 &#9;"/>
	<path class="st16_designer-42" d="M109.2,330.7l47.5-26.9c0.8-0.5,1.9-0.5,2.7,0L285,375.6c1.3,0.8,1.8,2.4,1,3.8c-0.2,0.4-0.6,0.7-1,1&#10;&#9;&#9;L238.9,409c-0.9,0.5-2,0.5-2.9,0l-126.8-73.5c-1.3-0.8-1.8-2.5-1-3.8C108.5,331.3,108.8,330.9,109.2,330.7z"/>
	<path class="st10_designer-42" d="M109.2,328.8l47.5-26.9c0.8-0.5,1.9-0.5,2.7,0L285,373.7c1.3,0.8,1.8,2.4,1,3.8c-0.2,0.4-0.6,0.7-1,1&#10;&#9;&#9;l-46.2,28.7c-0.9,0.5-2,0.5-2.9,0l-126.8-73.5c-1.3-0.8-1.8-2.5-1-3.8C108.5,329.4,108.8,329.1,109.2,328.8z"/>
	<polyline class="st1_designer-42" points="247.6,385.5 247.6,386.9 258.5,386.9 258.5,385.5 &#9;"/>
	<ellipse class="st1_designer-42" cx="253.1" cy="387" rx="5.4" ry="3.2"/>
	<ellipse class="st9_designer-42" cx="253.1" cy="385.5" rx="5.4" ry="3.2"/>
	<polygon class="st6_designer-42 targetColor" points="116.1,331.6 140.8,345.8 184.4,320.4 159.9,306.4 &#9;" style="fill: rgb(104, 225, 253);"/>
	<polygon class="st6_designer-42 targetColor" points="143.6,347.2 168.3,361.4 211.8,336.1 187.4,322 &#9;" style="fill: rgb(104, 225, 253);"/>
	<polygon class="st6_designer-42 targetColor" points="170.9,362.9 195.6,377.1 239.1,351.7 214.6,337.7 &#9;" style="fill: rgb(104, 225, 253);"/>
	<polygon class="st6_designer-42 targetColor" points="198.4,378.6 223,392.8 266.7,367.4 242.1,353.4 &#9;" style="fill: rgb(104, 225, 253);"/>
	<g>
		<polygon class="st6_designer-42 targetColor" points="116.1,331.6 140.8,345.8 184.4,320.4 159.9,306.4 &#9;&#9;" style="fill: rgb(104, 225, 253);"/>
		<polygon class="st6_designer-42 targetColor" points="143.6,347.2 168.3,361.4 211.8,336.1 187.4,322 &#9;&#9;" style="fill: rgb(104, 225, 253);"/>
		<polygon class="st6_designer-42 targetColor" points="170.9,362.9 195.6,377.1 239.1,351.7 214.6,337.7 &#9;&#9;" style="fill: rgb(104, 225, 253);"/>
		<polygon class="st6_designer-42 targetColor" points="198.4,378.6 223,392.8 266.7,367.4 242.1,353.4 &#9;&#9;" style="fill: rgb(104, 225, 253);"/>
		<g class="st17_designer-42">
			<polygon class="st16_designer-42" points="143.8,347.2 168.4,361.4 212,336.1 187.5,322 &#9;&#9;&#9;"/>
			<polygon class="st9_designer-42" points="171,362.9 195.7,377.1 239.3,351.7 214.7,337.7 &#9;&#9;&#9;"/>
			<polygon class="st1_designer-42" points="198.5,378.6 223.2,392.8 266.8,367.4 242.2,353.4 &#9;&#9;&#9;"/>
		</g>
	</g>
</g>
<g id="plant_designer-42">
	
		<linearGradient id="SVGID_00000068638179788806085490000001527490952501956028_-designer-42" gradientUnits="userSpaceOnUse" x1="71.9226" y1="198.4965" x2="60.7026" y2="189.9965" gradientTransform="matrix(1 0 0 -1 0 502)">
		<stop offset="0" style="stop-color:#FF7351"/>
		<stop offset="1" style="stop-color:#FFB3A6"/>
	</linearGradient>
	
		<polyline style="opacity:0.32;fill:url(#SVGID_00000068638179788806085490000001527490952501956028_);enable-background:new    ;" points="&#10;&#9;&#9;94.7,305.7 68.1,321.9 42.3,306.5 67.6,290.9 &#9;"/>
	<path class="st1_designer-42" d="M66.1,273.3c0,0-3.5,29.6,12.2,35.4s24.1-9.2,24.3-35.4"/>
	<ellipse class="st5_designer-42" cx="84.3" cy="273.3" rx="18.3" ry="10.6"/>
	<path class="st3_designer-42" d="M89,249.8c0,0-7.2-10.4-4-17.5c0,0,2.6-4.6,6.2-5.3c0,0-0.4,9.8,3.3,8.6s0-10.3,0-10.3s3.8-5.2,8-5&#10;&#9;&#9;s0,9.2,2.9,7.7s0.2-9.2,3.5-10.1c3-0.7,6.1-1.2,9.1-1.5c0,0,3.1,9,0,10.2s-7.7,1.7-5.5,3.7s8.4-0.3,8.4-0.3s0.4,5-1.7,7.2&#10;&#9;&#9;s-14.5-2.6-12.3,1.7s10.4,2.1,10.4,2.1s-4.2,6-9.1,8.7S89,249.8,89,249.8z"/>
	<path class="st3_designer-42" d="M90.7,275.7c0,0-5.2-5.1-4.2-9.5c0,0,1-2.9,3-3.7c0,0,0.8,5.6,2.8,4.5s-1.1-5.8-1.1-5.8s1.6-3.4,4-3.7&#10;&#9;&#9;s1,5.2,2.5,4s-0.9-5.2,0.9-6.1c1.6-0.7,3.3-1.3,5-1.8c0,0,2.7,4.7,1.1,5.8s-4.2,1.8-2.7,2.7s4.7-1.1,4.7-1.1s0.8,2.8-0.2,4.3&#10;&#9;&#9;s-8.5,0-6.8,2.3s6.1,0.1,6.1,0.1c-1,2.2-2.5,4.2-4.2,5.9C99.1,275.7,90.7,275.7,90.7,275.7z"/>
	<path class="st3_designer-42" d="M71.7,264.6c0,0-12.6,0.5-16.9-6c0,0-2.5-4.6-1.1-8.1c0,0,8.1,5.6,9,1.8s-8.7-5.5-8.7-5.5s-2.3-6,0.1-9.5&#10;&#9;&#9;s7.7,4.9,8,1.7s-7.6-5.1-6.6-8.4c1-2.9,2.3-5.7,3.7-8.5c0,0,9.2,2.2,8.6,5.5s-2.7,7.4,0.2,6.6s4.3-7.3,4.3-7.3s4.5,2.4,5.2,5.3&#10;&#9;&#9;s-10,10.8-5.2,11.3s7.4-7.6,7.4-7.6s2.8,6.8,2.5,12.4S71.7,264.6,71.7,264.6z"/>
	<path class="st1_designer-42" d="M115.3,220.3c-1.3,1.1-2.7,2.3-4,3.4c0.1-1.4,0.3-2.9,0.5-4.3c0.1-0.8-1-1.1-1.2-0.3c-0.3,1.9-0.5,3.8-0.7,5.7&#10;&#9;&#9;c-3.5,3.1-7,6.3-10.3,9.8c-0.3-2.4-0.4-4.8-0.2-7.3c0-0.8-1.2-0.8-1.2,0c-0.2,2.8,0,5.6,0.3,8.4c-2.1,2.2-4,4.6-5.8,7.1&#10;&#9;&#9;c-2-2.8-3.4-6.1-4.1-9.5c-0.1-0.8-1.3-0.4-1.2,0.3c0.7,3.6,2.2,7.1,4.4,10.1c0,0,0.1,0.1,0.1,0.1c-5.2,7.4-8.8,15.7-9.1,25.4&#10;&#9;&#9;c0,0.3,0.3,0.6,0.7,0.5c0.3,0,0.5-0.2,0.5-0.5c0.3-9.3,3.7-17.3,8.8-24.5c4.8,1.3,9.8,1.8,14.7,1.4c0.8-0.1,0.8-1.2,0-1.2&#10;&#9;&#9;c-4.7,0.3-9.4-0.1-14-1.3c2.5-3.4,5.3-6.6,8.3-9.6c0,0,0.1,0,0.1,0c2.8,0.2,5.6,0.5,8.3,0.6c1.8,0.1,3.5,0.2,5.2-0.6&#10;&#9;&#9;c0.7-0.3,0.1-1.4-0.6-1c-1.9,1-4.6,0.4-6.7,0.3c-1.8-0.1-3.5-0.2-5.3-0.4c4.2-4.2,8.8-8.1,13.2-11.8&#10;&#9;&#9;C116.8,220.7,115.9,219.8,115.3,220.3z"/>
	<path class="st1_designer-42" d="M78.5,243.5c0.1-0.3-0.2-0.6-0.5-0.7c-0.3,0-0.6,0.1-0.7,0.4c-1.3,4.4-4,8.3-7.6,11c-1.3-3.7-2.6-7.5-3.7-11.3&#10;&#9;&#9;c2.9-2.9,5.2-6.2,7-9.9c0.3-0.7-0.7-1.3-1-0.6c-1.6,3.4-3.7,6.4-6.3,9.1c-1.2-4.4-2.3-8.8-3.3-13.2c-0.2-0.8-1.3-0.4-1.2,0.3&#10;&#9;&#9;c1.3,6.1,2.8,12.1,4.7,18.1c-2.2-0.4-4.4-1.2-6.5-2.1c-0.7-0.3-1.3,0.7-0.6,1c2.4,1.1,4.9,1.9,7.5,2.4l0,0&#10;&#9;&#9;c1.2,3.9,2.7,7.8,4.2,11.6c-3.6-0.1-7.1-0.9-10.3-2.3c-0.7-0.3-1.3,0.7-0.6,1c3.6,1.6,7.5,2.4,11.4,2.5c1.9,4.8,4,9.5,6.3,14.1&#10;&#9;&#9;c0.3,0.7,1.4,0.1,1-0.6c-3.1-6.1-5.8-12.4-8.1-18.9l0,0C74.2,252.4,77.1,248.2,78.5,243.5z"/>
	<path class="st1_designer-42" d="M100,258.8l-3.3,5.5c-0.4-0.5-0.7-1.1-1-1.7c-0.3-0.7-1.3-0.1-1,0.6c0.4,0.8,0.8,1.5,1.4,2.2l0,0l-3.5,6&#10;&#9;&#9;c-0.4-0.4-0.7-0.9-0.7-1.4c-0.1-0.8-1.3-0.8-1.2,0c0.1,1,0.6,1.9,1.4,2.5l-4.4,7.4c-0.1,0.3,0.1,0.7,0.4,0.8c0.2,0.1,0.4,0,0.6-0.2&#10;&#9;&#9;l5.8-9.8c1,0,2-0.1,2.9-0.4c0.7-0.2,0.4-1.4-0.3-1.1c-0.6,0.2-1.2,0.3-1.8,0.4l5.9-9.9c0.2-0.3,0.1-0.7-0.2-0.8&#10;&#9;&#9;C100.5,258.4,100.2,258.5,100,258.8z"/>
</g>
</svg>