<svg id="_0236_couple_1" xmlns="http://www.w3.org/2000/svg" xmlns:xlink="http://www.w3.org/1999/xlink" viewBox="0 0 500 500" data-imageid="couple-1-15" imageName="Couple 1" class="illustrations_image" style="width: 178px;"><defs><style>.cls-1_couple-1-15{fill:url(#linear-gradient);}.cls-1_couple-1-15,.cls-2_couple-1-15,.cls-3_couple-1-15,.cls-4_couple-1-15,.cls-5_couple-1-15,.cls-6_couple-1-15,.cls-7_couple-1-15,.cls-8_couple-1-15,.cls-9_couple-1-15,.cls-10_couple-1-15,.cls-11_couple-1-15,.cls-12_couple-1-15,.cls-13_couple-1-15,.cls-14_couple-1-15,.cls-15_couple-1-15,.cls-16_couple-1-15,.cls-17_couple-1-15,.cls-18_couple-1-15,.cls-19_couple-1-15,.cls-20_couple-1-15,.cls-21_couple-1-15,.cls-22_couple-1-15,.cls-23_couple-1-15,.cls-24_couple-1-15{stroke-width:0px;}.cls-2_couple-1-15{fill:url(#linear-gradient-11-couple-1-15);}.cls-3_couple-1-15{fill:url(#linear-gradient-12-couple-1-15);}.cls-4_couple-1-15{fill:url(#linear-gradient-13-couple-1-15);}.cls-5_couple-1-15{fill:url(#linear-gradient-10-couple-1-15);}.cls-6_couple-1-15{fill:url(#linear-gradient-17-couple-1-15);}.cls-7_couple-1-15{fill:url(#linear-gradient-16-couple-1-15);}.cls-8_couple-1-15{fill:url(#linear-gradient-19-couple-1-15);}.cls-9_couple-1-15{fill:url(#linear-gradient-15-couple-1-15);}.cls-10_couple-1-15{fill:url(#linear-gradient-18-couple-1-15);}.cls-11_couple-1-15{fill:url(#linear-gradient-14-couple-1-15);}.cls-12_couple-1-15{fill:url(#linear-gradient-4-couple-1-15);}.cls-13_couple-1-15{fill:url(#linear-gradient-2-couple-1-15);}.cls-14_couple-1-15{fill:url(#linear-gradient-3-couple-1-15);}.cls-15_couple-1-15{fill:url(#linear-gradient-8-couple-1-15);}.cls-16_couple-1-15{fill:url(#linear-gradient-9-couple-1-15);}.cls-17_couple-1-15{fill:url(#linear-gradient-7-couple-1-15);}.cls-18_couple-1-15{fill:url(#linear-gradient-5-couple-1-15);}.cls-19_couple-1-15{fill:url(#linear-gradient-6-couple-1-15);}.cls-20_couple-1-15{isolation:isolate;opacity:.24;}.cls-20_couple-1-15,.cls-24_couple-1-15{fill:#68e1fd;}.cls-21_couple-1-15{fill:#231f20;}.cls-22_couple-1-15{fill:#fff;}.cls-23_couple-1-15{fill:#ffb4a3;}</style><linearGradient id="linear-gradient-couple-1-15" x1="724.83" y1="1381.38" x2="794.26" y2="1097.85" gradientTransform="translate(-474.76 1706.35) scale(1 -1)" gradientUnits="userSpaceOnUse"><stop offset="0" stop-color="#231f20" stop-opacity="0"/><stop offset="1" stop-color="#231f20"/></linearGradient><linearGradient id="linear-gradient-2-couple-1-15" x1="732.7" y1="1350.24" x2="734.89" y2="1498.31" xlink:href="#linear-gradient-couple-1-15"/><linearGradient id="linear-gradient-3-couple-1-15" x1="575.99" y1="1393.42" x2="526.03" y2="1226.52" xlink:href="#linear-gradient-couple-1-15"/><linearGradient id="linear-gradient-4-couple-1-15" x1="551.63" y1="1426.17" x2="707.14" y2="1405.25" xlink:href="#linear-gradient-couple-1-15"/><linearGradient id="linear-gradient-5-couple-1-15" x1="346.77" y1="1661.52" x2="474.18" y2="1644.39" gradientTransform="translate(-707.39 1781.23) rotate(16.38) scale(1 -1)" xlink:href="#linear-gradient-couple-1-15"/><linearGradient id="linear-gradient-6-couple-1-15" x1="-1411.28" y1="1395.27" x2="-1461.24" y2="1228.37" gradientTransform="translate(-1026.2 1706.35) rotate(-180)" xlink:href="#linear-gradient-couple-1-15"/><linearGradient id="linear-gradient-7-couple-1-15" x1="-1528.82" y1="1212.44" x2="-1374.37" y2="1191.66" gradientTransform="translate(-883.06 1741.98) rotate(169.59)" xlink:href="#linear-gradient-couple-1-15"/><linearGradient id="linear-gradient-8-couple-1-15" x1="-1562.9" y1="554.18" x2="-1436.7" y2="537.2" gradientTransform="translate(-445.18 1723.97) rotate(139.46)" xlink:href="#linear-gradient-couple-1-15"/><linearGradient id="linear-gradient-9-couple-1-15" x1="698.49" y1="1378.51" x2="779.9" y2="791.94" xlink:href="#linear-gradient-couple-1-15"/><linearGradient id="linear-gradient-10-couple-1-15" x1="768.32" y1="1409.21" x2="772.03" y2="1382" xlink:href="#linear-gradient-couple-1-15"/><linearGradient id="linear-gradient-11-couple-1-15" x1="763.12" y1="1470.98" x2="774.52" y2="1502.38" xlink:href="#linear-gradient-couple-1-15"/><linearGradient id="linear-gradient-12-couple-1-15" x1="752.21" y1="1488.96" x2="773.04" y2="1488.96" xlink:href="#linear-gradient-couple-1-15"/><linearGradient id="linear-gradient-13-couple-1-15" x1="737.91" y1="1420.78" x2="860.03" y2="1385.93" xlink:href="#linear-gradient-couple-1-15"/><linearGradient id="linear-gradient-14-couple-1-15" x1="796.63" y1="1431.68" x2="707.75" y2="1404.8" xlink:href="#linear-gradient-couple-1-15"/><linearGradient id="linear-gradient-15-couple-1-15" x1="703.05" y1="1410.57" x2="619.9" y2="1287.3" xlink:href="#linear-gradient-couple-1-15"/><linearGradient id="linear-gradient-16-couple-1-15" x1="691.87" y1="1421.16" x2="668.03" y2="1514.3" xlink:href="#linear-gradient-couple-1-15"/><linearGradient id="linear-gradient-17-couple-1-15" x1="677.45" y1="1442.5" x2="680.2" y2="1465.3" xlink:href="#linear-gradient-couple-1-15"/><linearGradient id="linear-gradient-18-couple-1-15" x1="716.59" y1="1439.47" x2="726.7" y2="1418.85" gradientTransform="translate(-444.08 1691.77) rotate(-2.29) scale(1 -1)" xlink:href="#linear-gradient-couple-1-15"/><linearGradient id="linear-gradient-19-couple-1-15" x1="695.25" y1="1482.84" x2="701.54" y2="1461.27" xlink:href="#linear-gradient-couple-1-15"/></defs><g id="background_couple-1-15"><path class="cls-20_couple-1-15 targetColor" d="M454.06,280.17c-7.71,12.94-17.01,24.88-27.69,35.57-16.41,16.53-35.81,29.87-57.19,39.34-13,5.7-26.74,10-38.9,17.28-18.8,11.26-32.36,30.32-51.84,40.31-21.29,10.93-45.54-8.19-65.4-16.16-27.83-11.19-59.24-12.28-86.24-25.32-23.3-11.26-41.63-30.7-56.61-51.63-.12-.14-.21-.29-.33-.43-18.94-26.55-33.65-56.89-36.75-89.22-3.1-32.33,6.7-66.82,30.61-89.09,11.43-10.67,25.46-18.14,39.44-25.2,20.21-10.19,41.7-19.98,64.32-19.19,14.62.5,27.97,5.4,41.55,9.36,10.19,2.98,20.52,5.4,31.71,5.08,24.07-.67,45.42-16.37,68.3-22.3,14.48-3.77,29.56-4.79,44.55-4.5,28.33.55,57.17,6.02,81.42,20.51,63.22,37.8,52,120.21,19.05,175.59Z" style="fill: rgb(104, 225, 253);"/><path class="cls-24_couple-1-15 targetColor" d="M426.37,315.73c-16.41,16.53-35.81,29.87-57.19,39.34-13,5.7-26.74,10-38.9,17.28-18.8,11.26-32.36,30.32-51.84,40.31-21.29,10.93-45.54-8.19-65.4-16.16-27.83-11.19-59.24-12.28-86.24-25.32-23.3-11.26-41.63-30.7-56.61-51.63h32c7.59,0,15.91,1.14,23.37.06,4.91-.71,16.29-1.63,19.43-5.96.91-1.25,1.94-3.11,3.44-2.63.8.25,1.21,1.12,1.85,1.67,1.17,1.01,3.04.79,4.33-.04,1.23-.95,2.24-2.14,2.96-3.51,1.49.79,2.4,2.37,3.37,3.74s2.17,2.81,3.84,3.16,3.71-1.07,3.31-2.71c7.85,9.7,19.6,6.44,31.16,6.24l49.41-.83,47.79-.79,25.57-.43c6.39-.11,16.44,1.75,21.52-2.97,1.75-1.79,3.24-3.82,4.41-6.03.22,1.87,1.93,3.2,3.82,2.99,1.52-.17,2.74-1.32,3-2.81.59,1.01,1.5,2.16,2.65,1.92.39-.11.75-.31,1.05-.58l4-3.01c-.22,2.7,1.79,5.18,4.23,6.4s5.27,1.43,7.99,1.62c11.99.84,23.48,1.18,35.52.99,2.34-.07,14.44,1.42,16.16-.31Z" style="fill: rgb(104, 225, 253);"/><path class="cls-1_couple-1-15" d="M426.37,315.73c-16.41,16.53-35.81,29.87-57.19,39.34-1.13.5-2.25.97-3.4,1.44-11.99,5.03-24.39,9.21-35.5,15.84-18.8,11.26-32.36,30.32-51.84,40.31-21.29,10.93-45.54-8.19-65.4-16.16-27.83-11.19-59.24-12.28-86.24-25.32-15.07-7.28-28.1-18-39.41-30.34-6.18-6.74-11.93-13.85-17.2-21.3h32.01c7.57,0,15.89,1.14,23.36.06,4.91-.73,16.28-1.64,19.45-5.96.89-1.25,1.93-3.1,3.44-2.63.8.27,1.21,1.11,1.84,1.67,1.18,1.02,3.05.79,4.35,0,1.21-.95,2.21-2.15,2.92-3.51,1.51.79,2.4,2.37,3.38,3.72s2.19,2.83,3.85,3.16,3.7-1.08,3.32-2.71c7.84,9.7,19.59,6.45,31.11,6.25,16.46-.26,32.93-.53,49.41-.79,15.93-.29,31.85-.56,47.78-.79l25.57-.44c6.39-.09,16.44,1.76,21.53-2.95,1.76-1.8,3.24-3.84,4.41-6.05.23,1.66,1.62,2.92,3.32,3.01,1.7,0,3.16-1.2,3.49-2.84.59,1.03,1.51,2.19,2.67,1.93.39-.11.74-.31,1.04-.58,1.33-.99,2.69-1.99,4-2.98-.2,2.69,1.81,5.18,4.23,6.37s5.27,1.43,7.99,1.63c11.99.79,23.48,1.17,35.52.96,2.38-.09,14.49,1.4,16.2-.33Z"/><path class="cls-13_couple-1-15" d="M170.55,325.38c-1.93.39-4.35,1.35-4.24,3.29.18,1.07.86,1.99,1.83,2.48,3.11,1.96,7.05,1.93,10.74,1.84,19.18-.49,38.35-1.07,57.53-1.73,2.32-.08,4.79-.2,6.72-1.42.69-.54,1.44-1,2.24-1.36.75-.19,1.52-.24,2.29-.13l10.07.72c-.42,1.68.8,3.42,2.32,4.24,1.6.71,3.34,1.05,5.1,1.01,21.79,1,43.62.35,65.31-1.92,6.94-.73,14.12-1.71,19.98-5.43-2.33-4.27-8.16-4.88-13.06-4.96-45.08-.79-90.29-2.54-135.35-2.33-10.4.06-21.25,3.67-31.45,5.7Z"/><path class="cls-14_couple-1-15" d="M111.93,332.43l3.49,3.53c.84.66,1.4,1.6,1.6,2.64.08,1.78-1.94,2.9-3.72,3.16-4.63.65-9.18-1.65-12.92-4.43s-7.11-6.14-11.31-8.18c-2.48-1.21-5.19-1.92-7.71-3.05s-4.94-2.83-6.09-5.32c2.44-3.16,11.19-1.41,14.69-1.43,3.9-.07,7.8-.4,11.66-.99,3.2-.43,13.06-3.03,12.61,2.52-.42,4.92-7.44,6.45-2.29,11.54Z"/><path class="cls-24_couple-1-15 targetColor" d="M92.86,321.81c-.59.34-1.24.56-1.92.64-.31.03-.61.03-.92,0-7.19-.38-12.7-17.19-13.54-22.3-2.4-14.44,3.71-30.32-3.04-43.35-2.4-4.73-6.39-8.57-9.15-13.13-6.66-10.93-5.54-25.92,2.66-35.78-1.09,9.67,5.45,18.44,11.91,25.84s13.53,15.44,13.89,25.14c.35,9.53-5.95,19.03-3.2,28.15,1.13,3.68,3.61,6.78,5.27,10.26,2.15,4.51,4.37,20.91-1.97,24.53Z" style="fill: rgb(104, 225, 253);"/><path class="cls-12_couple-1-15" d="M92.86,321.81c-.59.34-1.24.56-1.92.64-.31.03-.61.03-.92,0-1.45-3.07-2.3-6.38-2.52-9.77-.48-5.58,0-11.34-1.6-16.72-.71-2.43-1.84-4.73-2.64-7.1-1.43-4.19-1.92-8.64-1.45-13.03.42-3.83,1.6-7.54,1.98-11.34.87-9.31-2.51-18.51-9.2-25.11,7.07,6.46,11.99,15.2,11.63,24.68-.21,6.07-2.72,12.07-1.93,18.14.54,3.94,2.4,7.48,3.49,11.28,2.4,8.45.68,17.81,4,25.95.35.85.71,1.64,1.06,2.37Z"/><path class="cls-24_couple-1-15 targetColor" d="M96.67,321.64c-.55.13-1.12.15-1.68.06-.25-.04-.5-.1-.74-.19-5.59-1.95-6.02-16.57-5.47-20.83,1.53-12.02,10.1-23.22,7.82-35.13-.8-4.32-3.03-8.27-4.16-12.53-2.58-10.54,1.64-21.56,10.62-27.8-3.2,7.43,0,15.9,3.34,23.26s7.1,15.35,5.08,23.16c-1.97,7.65-9.22,13.74-9.16,21.62,0,3.16,1.26,6.22,1.76,9.36.58,4.04-1.49,17.58-7.41,19Z" style="fill: rgb(104, 225, 253);"/><path class="cls-18_couple-1-15" d="M96.67,321.64c-.55.13-1.12.15-1.68.06-.25-.04-.5-.1-.74-.19-.42-2.77-.31-5.6.31-8.33.94-4.54,2.66-9.01,2.66-13.66,0-2.09-.34-4.16-.42-6.22-.14-3.66.52-7.3,1.93-10.68,1.23-2.95,3.03-5.63,4.26-8.55,2.9-7.2,2.39-15.3-1.38-22.09,4.1,6.76,5.93,14.84,3.41,22.28-1.6,4.78-5.02,8.95-5.82,13.95-.5,3.23.16,6.5.11,9.77-.1,7.26-3.67,14.29-2.94,21.54.11.76.21,1.47.3,2.13Z"/><path class="cls-19_couple-1-15" d="M374.39,330.58l-3.49,3.53c-.74.75-1.53,1.58-1.6,2.65-.08,1.77,1.94,2.89,3.72,3.16,4.63.65,9.18-1.65,12.92-4.43,3.74-2.78,7.1-6.14,11.31-8.18,2.48-1.21,5.19-1.91,7.71-3.05s4.94-2.82,6.09-5.32c-2.45-3.16-11.19-1.4-14.69-1.42-3.91-.08-7.8-.41-11.67-.99-3.2-.43-13.05-3.04-12.6,2.51.42,4.91,7.43,6.45,2.29,11.53Z"/><path class="cls-24_couple-1-15 targetColor" d="M392.56,321.2c.64.22,1.32.32,2.01.28.31-.02.61-.06.91-.14,6.98-1.67,9.29-19.19,9.15-24.38-.35-14.62-9.27-29.13-5.06-43.16,1.5-5.1,4.66-9.58,6.55-14.56,4.51-11.95.62-26.49-9.28-34.71,2.88,9.32-1.93,19.12-6.9,27.56-4.97,8.44-10.44,17.59-8.97,27.23,1.42,9.47,9.39,17.62,8.35,27.1-.42,3.83-2.29,7.32-3.27,11.04-1.27,4.8-.4,21.32,6.5,23.74Z" style="fill: rgb(104, 225, 253);"/><path class="cls-17_couple-1-15" d="M392.56,321.2c.64.22,1.32.32,2.01.28.31-.02.61-.06.91-.14.85-3.28,1.08-6.69.66-10.05-.57-5.57-2.08-11.16-1.5-16.73.25-2.51.93-4.95,1.27-7.43.62-4.38.28-8.84-1-13.07-1.12-3.69-2.94-7.1-4.06-10.79-2.59-8.99-.98-18.65,4.38-26.35-5.75,7.63-8.96,17.11-6.85,26.36,1.33,5.94,4.92,11.38,5.27,17.47.2,3.94-1,7.79-1.33,11.72-.8,8.74,2.64,17.62.86,26.25-.19.86-.4,1.7-.61,2.49Z"/><path class="cls-24_couple-1-15 targetColor" d="M394.85,321.76c.56-.1,1.09-.31,1.56-.62.21-.13.41-.29.59-.47,4.31-4.05-1.37-17.56-3.63-21.22-6.39-10.34-18.84-17.11-21.69-28.9-1.05-4.27-.66-8.77-1.39-13.12-2-10.64-10.38-19-21.13-21.1,5.96,5.52,6.62,14.5,6.58,22.59s-.13,16.87,4.95,23.19c4.96,6.19,14.1,8.82,17.32,16.04,1.29,2.91,1.41,6.19,2.27,9.25,1.06,3.94,8.6,15.45,14.56,14.36Z" style="fill: rgb(104, 225, 253);"/><path class="cls-15_couple-1-15" d="M394.85,321.76c.56-.1,1.09-.31,1.56-.62.21-.13.41-.29.59-.47-.76-2.7-2.02-5.24-3.73-7.48-2.74-3.77-6.16-7.16-8.08-11.39-.88-1.9-1.41-3.94-2.2-5.85-1.38-3.4-3.49-6.46-6.18-8.98-2.35-2.19-5.1-3.94-7.42-6.08-5.61-5.4-8.5-12.98-7.89-20.69-.93,7.83.74,15.93,6.12,21.7,3.44,3.72,8.29,6.15,11.07,10.38,1.8,2.75,2.55,6,3.95,8.95,3.09,6.6,9.27,11.57,11.6,18.48.22.68.46,1.39.61,2.04Z"/><path class="cls-16_couple-1-15" d="M365.77,356.51c-11.99,5.03-24.39,9.21-35.5,15.84-18.8,11.26-32.36,30.32-51.84,40.31-21.29,10.93-45.54-8.19-65.4-16.16-27.83-11.19-59.24-12.28-86.24-25.32-15.07-7.28-28.1-18-39.41-30.34,16.37-.17,31.03,9.65,45.8,16.8,29.88,14.5,64.04,19.06,97.22,16.61,13.89-1.03,27.77-3.24,41.65-2.04,5.54.47,11.11,1.46,16.64.79,10.87-1.25,19.81-8.5,29.4-13.68,12.94-7.01,28.28-10.37,42.69-7.25,2.01.44,4.3,1.29,4.86,3.25.11.39.15.79.12,1.19Z"/></g><g id="character_2_couple-1-15"><path class="cls-21_couple-1-15" d="M321.65,292.91c3.6-1.21,7.99-2.11,11.12-.5,1.95.98,3.06,3.07,2.78,5.21-.23,1.98-1.41,3.87-2.68,5.66-4.41,6.1-9.81,11.43-15.98,15.78-3.75,2.68-7.99,5.18-13.06,6.07-3.25.44-6.53.54-9.8.28-5.14-.23-10.28-.46-15.38-.92-3.04-.28-6.17-.66-8.69-1.88-1.88-.99-3.57-2.31-4.98-3.89-6.76-6.86-12.86-14.5-13.74-23.09-.29-2.79.32-6.08,3.56-7.72,3.92-1.97,9.04-.32,12.83,1.54,3.86,1.88,7.59,3.98,11.19,6.31,3.58,2.33,7.15,4.92,11.84,5.79,11.91,2.2,20.94-5.28,30.99-8.65Z"/><path class="cls-5_couple-1-15" d="M321.65,292.91c3.6-1.21,7.99-2.11,11.12-.5,1.95.98,3.06,3.07,2.78,5.21-.23,1.98-1.41,3.87-2.68,5.66-4.41,6.1-9.81,11.43-15.98,15.78-3.75,2.68-7.99,5.18-13.06,6.07-3.25.44-6.53.54-9.8.28-5.14-.23-10.28-.46-15.38-.92-3.04-.28-6.17-.66-8.69-1.88-1.88-.99-3.57-2.31-4.98-3.89-6.76-6.86-12.86-14.5-13.74-23.09-.29-2.79.32-6.08,3.56-7.72,3.92-1.97,9.04-.32,12.83,1.54,3.86,1.88,7.59,3.98,11.19,6.31,3.58,2.33,7.15,4.92,11.84,5.79,11.91,2.2,20.94-5.28,30.99-8.65Z"/><path class="cls-23_couple-1-15" d="M272.81,307.93v.29c-.56,3.68-.59-3.19,0-.29Z"/><path class="cls-23_couple-1-15" d="M327.38,323.48c-1.06-.11-2.1-.42-3.04-.93-.37-.21-.8-.47-1.2-.25s-.37.69-.46,1.1c-.29,1.12-1.4,1.85-2.56,1.68-.07,0-.14-.04-.2-.09-.04-.07-.06-.15-.05-.23.04-.97,0-1.95-.13-2.92-.16-1.06-.31-2.11-.48-3.16-.32-2.07-.66-4.14-1.02-6.2-1.38-7.74-3.26-15.45-6.54-22.64-.95,5.7.06,11.52,0,17.31s-.54.58-5.03,4.27c-4.32,3.5-10.43,3.83-15.98,3.57-3.64-.18-7.26-.53-10.87-1.03-2.01-.29-4.15-.73-5.51-2.22-.79-.98-1.3-2.17-1.45-3.42-.02-.13-.05-.26-.09-.38.95-6.77,1.01-13.64.18-20.43.23,1.86-1.9,4.54-2.97,5.89-1.54,1.96-3.36,3.67-5.08,5.47-3.79,3.94-6.3,8.56-6.31,14.2,0,1.41.19,2.82.08,4.24-.04,1.43-.64,2.79-1.67,3.79-.37-.83-.7-1.68-.96-2.55-1.78,1.4-1.53,4.25-3,5.97-.24.32-.59.54-.98.63-.8.14-1.51-.63-1.89-1.37-1.21-2.41-1.08-5.31-.27-7.89.65-1.9,1.48-3.73,2.48-5.47.8-1.47.8-2.83,1.19-4.44.9-3.94,1.93-7.78,3.03-11.64,2.2-7.7,4.66-15.32,6.87-23.01,1.8-6.22,3.38-12.47,4.64-18.82.33-1.65.79-3.27,1.39-4.85.35-.98.85-1.89,1.48-2.72,1.51-1.87,4-2.69,6.25-3.51,1.6-.58,3.26-1.22,4.86-1.96,1.43-.52,2.72-1.35,3.79-2.42.31-.35.58-.73.8-1.14.44-.83.73-1.73.86-2.66.15-1.25.17-2.51.09-3.77v-.38c1.95-.47,4.17-2.95,6.15-2.86.35.04.7.15,1.01.32.45.26.5,2.89.6,3.38.35,1.76,0,3.65.62,5.38.43,1.15,1.13,2.19,2.05,3.01,2.07,2.04,4.74,3.39,7.37,4.65,1.29.56,2.51,1.27,3.64,2.11,1.78,1.6,3.01,3.72,3.5,6.05.46,2.32.66,4.68.62,7.04.3,14.9,5.98,29.55,8.89,44.18l.12.58c.69,3.91,1.7,7.76,3.04,11.51.3.79.6,1.66.97,2.42.46.63,1.08,1.14,1.8,1.47,1.62,1.03,3.33,1.91,5.11,2.63.61.2,1.19.51,1.7.9.35.23.51.66.39,1.06-.22.3-.57.48-.95.48-1.11.13-2.23.19-3.36.19-1.17.04-2.34,0-3.5-.12Z"/><path class="cls-2_couple-1-15" d="M293.68,228.62s-2.63,7.23-6.98,7.25h0c.44-.83.73-1.73.86-2.66.15-1.25.17-2.51.09-3.77l6.03-.82Z"/><path class="cls-24_couple-1-15 targetColor" d="M292.91,236.61c1.21-.29,2.46-.43,3.71-.4,2.53.24,4.49,2.17,6.59,3.58,1.93,1.29,4.11,2.19,5.98,3.57,5.76,4.27,7.37,12.11,7.45,19.22s6.16,37.01,4.64,40.37c-.64,1.21-1.51,2.29-2.58,3.16-1.3,1.19-2.67,2.3-4.09,3.35-.3-.48-1.99-9.55-2.28-10.03.19,5.56,0,11.12-.54,16.65,0,1.06-.31,2.1-.88,3-.73.81-1.71,1.37-2.79,1.58-6.15,1.67-12.6-.57-18.94-1.18-6.2-.6-12.9.28-18.29-2.82-.47-.22-.86-.58-1.1-1.03-.15-.5-.15-1.03,0-1.52.54-3.02,1.24-21.51,1.78-24.53.35.91-6.96,17.13-7.95,17.23-.99,0-1.97-.3-2.79-.85l-6.06-3.3c-.48-.21-.89-.54-1.2-.96-.44-.79-.1-1.7.21-2.52,6.06-15.72,8.14-33.61,13.94-49.42.94-2.88,2.5-5.52,4.56-7.75,2.72-2.56,6.06-4.38,9.71-5.28,3.51-.85,7.22.52,10.9-.1Z" style="fill: rgb(104, 225, 253);"/><path class="cls-23_couple-1-15" d="M280.26,224.06c-.09.25-.13.52-.1.79.13.58.8.84,1.22,1.24,1.21,1.06.99,3.08,2.05,4.28s3.2,1.14,4.91.87c1.27-.14,2.5-.47,3.66-1,1.09-.61,2.02-1.47,2.69-2.52,3.07-4.52,2.15-11-1.41-15.15-.92-1.18-2.17-2.07-3.6-2.55-2.69-.75-5.59.92-7.1,3.25-2.19,3.46-1.33,7.16-2.31,10.78Z"/><path class="cls-21_couple-1-15" d="M280.49,216.94c1.42.26,2.84-.29,4.24-.62.4-.15.84-.15,1.24,0,.28.2.5.47.63.79l2.29,4.66c-.21-.68.17-1.4.86-1.61.04-.01.09-.02.13-.03.75-.1,1.48.25,1.87.89.39.61.48,1.36.25,2.05-.25.72-.85,1.34-.87,2.1.01.42.15.82.4,1.16,1.11,1.66,3.37,2.12,5.06,1.03.71-.46,1.23-1.14,1.48-1.94.2-.77.26-1.57.19-2.37l-.23-8.47c-.06-1.81-.18-3.8-1.41-5.14-1.05-.94-2.33-1.58-3.72-1.85-.99-.31-2-.55-3.02-.69-3.73-.44-8.15,1.44-11.11,3.63-2.44,1.81-1.29,5.89,1.72,6.43Z"/><path class="cls-3_couple-1-15" d="M280.49,216.94c1.42.26,2.84-.29,4.24-.62.4-.15.84-.15,1.24,0,.28.2.5.47.63.79l2.29,4.66c-.21-.68.17-1.4.86-1.61.04-.01.09-.02.13-.03.75-.1,1.48.25,1.87.89.39.61.48,1.36.25,2.05-.25.72-.85,1.34-.87,2.1.01.42.15.82.4,1.16,1.11,1.66,3.37,2.12,5.06,1.03.71-.46,1.23-1.14,1.48-1.94.2-.77.26-1.57.19-2.37l-.23-8.47c-.06-1.81-.18-3.8-1.41-5.14-1.05-.94-2.33-1.58-3.72-1.85-.99-.31-2-.55-3.02-.69-3.73-.44-8.15,1.44-11.11,3.63-2.44,1.81-1.29,5.89,1.72,6.43Z"/><path class="cls-4_couple-1-15" d="M277.14,258.87c2.25,19.16,3.87,38.66.52,57.66.07,1.24-.89,2.3-2.15,2.37-.08,0-.16,0-.25,0-1.23.27-2.52.18-3.7-.26-2.14-1.04-2.44-3.87-2.46-6.23-.13-4.67.02-9.34.46-14,.47-4.05,2.1-7.37,3.13-11.26,2.44-9.26,3.93-18.73,4.44-28.28Z"/><path class="cls-11_couple-1-15" d="M309.08,247.16c2.48,1.4,4,4.04,4.79,6.77.61,2.76.89,5.58.85,8.4.41,12,2.21,23.91,5.36,35.5.49,1.33.63,2.75.41,4.15-.8,3.02-4.62,4.06-6.61,6.48-.48-4.39-1.81-8.5-1.6-12.94.24-5.52.7-10.94.76-16.44.11-5.45-.13-10.91-.71-16.33-.31-2.75-.74-5.47-1.29-8.18-.3-1.22-.9-6.82-1.97-7.42Z"/></g><g id="character_1_couple-1-15"><path class="cls-22_couple-1-15" d="M234.9,291.08c2.21,2.6,2.8,6.14,3.31,9.47l1.21,7.89c.8,5.1,1.2,11.2-2.84,14.47-2.56,2.07-6.14,2.26-9.46,2.37l-18.21.53c-2.68.08-5.42.15-7.99-.58s-5.02-2.43-5.94-4.91c-1.14-3.04.17-6.37.85-9.53.88-4.08.8-8.6,3.39-11.9,1.7-2.17,4.3-3.44,6.85-4.53,6.62-2.8,22.68-10.55,28.83-3.27Z"/><path class="cls-9_couple-1-15" d="M234.9,291.08c2.21,2.6,2.8,6.14,3.31,9.47l1.21,7.89c.8,5.1,1.2,11.2-2.84,14.47-2.56,2.07-6.14,2.26-9.46,2.37l-18.21.53c-2.68.08-5.42.15-7.99-.58s-5.02-2.43-5.94-4.91c-1.14-3.04.17-6.37.85-9.53.88-4.08.8-8.6,3.39-11.9,1.7-2.17,4.3-3.44,6.85-4.53,6.62-2.8,22.68-10.55,28.83-3.27Z"/><path class="cls-23_couple-1-15" d="M232.43,242.09c-.18.34-.4.65-.66.93-.87,1.18-.54,2.86-1.07,4.22-.74,1.9-2.92,2.76-4.88,3.42-.29.12-.6.17-.91.13-.29-.07-.55-.23-.74-.46-.67-.79-1.14-1.73-1.37-2.73-.59-1.75-.83-3.59-.71-5.43.14-1.84,1.03-3.55,2.46-4.73.57-.44,1.24-.71,1.96-.79,1.55-.12,3.06.51,4.05,1.69.61.8,2.33,2.6,1.89,3.74Z"/><path class="cls-23_couple-1-15" d="M249.5,317.99c.22.47.45.94.69,1.4.73,1.41,1.51,2.88,2.84,3.76.2.15.44.24.7.24.54,0,.85-.61,1.03-1.11.58-1.21.85-2.54.8-3.87-.26-2.08-2.06-3.7-2.56-5.74-.04-.36-.17-.71-.36-1.03-.24-.24-.52-.44-.84-.58-1.53-.88-2.4-3.02-3.4-4.39-1.17-1.62-2.54-3.09-4.08-4.37-.48-.47-1.16-.67-1.81-.54-.62.22-1.11.71-1.33,1.33-1.37,3.16,1.16,4.89,2.96,7.1,1.17,1.47,2.51,2.89,3.56,4.43.68,1.08,1.29,2.22,1.81,3.38Z"/><path class="cls-22_couple-1-15" d="M232.78,259.54l6.87,17.03c3.2,7.89,6.39,15.99,6.09,24.46,0,.65-.1,1.29-.31,1.9-.8,1.97-3.2,2.64-5.32,3.05-5.59-10.1-11.31-20.46-13.06-31.85l-1.36,16.76c-.09.79-.09,1.58,0,2.37.19.93.51,1.83.96,2.67,1.27,2.82,2.69,5.58,4.27,8.25,1.6,2.56,3.41,4.95,4.59,7.7s1.65,5.98.38,8.68c-1.18,2.23-3.18,3.93-5.59,4.73-2.39.78-4.89,1.17-7.41,1.14-4.27.07-8.55-.15-12.78-.69-2.7-.31-9.88,0-11.07-2.45-.8-1.62-.46-3.56.06-5.29,1.28-4.26,3.35-10.26,5-14.4,1.65-4.14.48-7.84-.63-12.14-1.5-5.86-3.8-10.55-3.2-16.57-3.24,1.92-3.2,3.73-6.66,5.29-2.15.97-5.02,1.74-6.59,0-1.22-1.34-.9-3.41-.5-5.16l1.85-8.2c1.45-6.44,2.94-12.97,6.19-18.74.19-.42.51-.78.91-1.01.4-.14.84-.15,1.25-.04,1.45.24,2.88.61,4.27,1.09-1.75,4.5-2.78,9.24-3.05,14.06,5.83-1.5,8.33-9,14.09-10.76,4.23-1.29,7.93,1.24,11.99,1.82,4.63.67,6.96,1.78,8.77,6.27Z"/><path class="cls-7_couple-1-15" d="M221.02,265.81c-1.68,2.73-3.58,5.32-5.66,7.76-2.7,3.01-6.12,5.72-7.13,9.61-.53,2.04-.43,4.47-2.01,5.89-.21.22-.49.37-.8.42-.74.04-1.18-.79-1.44-1.45-1.93-5.23-3.47-10.59-4.61-16.05-.12-.44-.15-.89-.09-1.34.16-.5.43-.97.8-1.35,4.6-5.45,10.17-10.03,16.44-13.51,2.45-1.35,5.59-2.65,7.45.39s-1.31,7.13-2.95,9.64Z"/><path class="cls-21_couple-1-15" d="M209.84,237.9c-1.77,5.1-5.32,9.41-10.03,12.14-4.38,2.52-9.54,3.57-13.7,6.41-5.16,3.63-8.12,9.58-7.88,15.83,2.44-1.14,5.05-2.22,7.74-2.04,2.22.15,4.29,1.14,6.39,1.87,3.59,1.25,7.39,1.77,11.19,1.52,5.9-.39,11.91-2.89,15.26-7.69,1.66-2.37,2.6-5.21,4.17-7.66,2.48-3.84.67-5.56,3.52-9.13.98-1.13,1.69-2.46,2.08-3.9.47-2.13-.21-4.35-1.17-6.31-1.69-3.49,1.32-7.65-2.3-9.17-3.2-1.34-7.26-.94-10.46.39s-3.8,4.79-4.82,7.73Z"/><path class="cls-6_couple-1-15" d="M209.84,237.9c-1.77,5.1-5.32,9.41-10.03,12.14-4.38,2.52-9.54,3.57-13.7,6.41-5.16,3.63-8.12,9.58-7.88,15.83,2.44-1.14,5.05-2.22,7.74-2.04,2.22.15,4.29,1.14,6.39,1.87,3.59,1.25,7.39,1.77,11.19,1.52,5.9-.39,11.91-2.89,15.26-7.69,1.66-2.37,2.6-5.21,4.17-7.66,2.48-3.84.67-5.56,3.52-9.13.98-1.13,1.69-2.46,2.08-3.9.47-2.13-.21-4.35-1.17-6.31-1.69-3.49,1.32-7.65-2.3-9.17-3.2-1.34-7.26-.94-10.46.39s-3.8,4.79-4.82,7.73Z"/><ellipse class="cls-24_couple-1-15 targetColor" cx="217.96" cy="233.51" rx="22.7" ry="8.64" transform="translate(-42.61 48.75) rotate(-11.63)" style="fill: rgb(104, 225, 253);"/><path class="cls-23_couple-1-15" d="M201.09,239.68c1.09-1.58,2.61-2.82,4.39-3.56.73-.3,1.73-.43,2.16.22s0,1.28-.29,1.85l-2.01,3.58c-.08.1-.11.23-.09.36.06.22.38.22.58.32.47.22.37.97-.05,1.29-.45.26-.95.43-1.47.5-1.53.44-2.56,1.81-3.45,3.11-1.14,1.67-3.92,2.88-3.11-.2.72-2.65,1.84-5.17,3.33-7.49Z"/><path class="cls-24_couple-1-15 targetColor" d="M224.43,219.87c-1.71-1.08-3.66-1.73-5.68-1.9-2.34-.29-4.79-.26-6.9.79-2.03,1.14-3.56,2.99-4.28,5.19-.7,2.18-.99,4.47-.87,6.75-.03.6.1,1.19.38,1.72.55.83,1.69,1,2.69,1.1,3.8.36,7.71.72,11.39-.28,2.85-.79,5.85-2.61,7.19-5.32,1.41-2.84-1.49-6.37-3.92-8.06Z" style="fill: rgb(104, 225, 253);"/><path class="cls-10_couple-1-15" d="M219.97,226.03c-3.84,1.4-8.04,1.42-12.12,1.18-.29-.05-.6-.01-.87.11-.23.16-.41.39-.51.65-.8,1.75-.62,4.24,1.11,5.09.64.26,1.32.38,2.01.35,4.32.11,8.63-.42,12.78-1.58,1.89-.53,3.87-1.27,5.03-2.86.94-1.29,1.65-5.37-.4-6.19-.93-.38-2.22.87-2.97,1.3-1.29.77-2.65,1.42-4.07,1.94Z"/><path class="cls-8_couple-1-15" d="M223.5,229.25c-1.27-.95-2.67-1.7-4.16-2.24-.17-.08-.36-.11-.54-.07-.15.05-.28.15-.38.28-1.12,1.26-1.46,3.03-.89,4.61.27.73.89,1.47,1.67,1.43.38-.06.74-.2,1.05-.43l1.44-.87c.14-.1.31-.18.48-.22.31-.03.62.02.89.15.65.25,1.35.38,2.05.37.7,0,1.37-.29,1.85-.79.8-.94.58-2.37.19-3.54-.22-.72-.52-1.41-.89-2.07-.05-.1-.13-.19-.23-.26-.14-.06-.29-.08-.43-.05-.78.19-1.49.61-2.03,1.21-.65.62-1.25,1.27-1.81,1.97"/></g></svg>